<svg xmlns="http://www.w3.org/2000/svg" version="1.1" xmlns:xlink="http://www.w3.org/1999/xlink" xmlns:svgjs="http://svgjs.dev/svgjs" width="1000" height="1000" viewBox="0 0 1000 1000"><rect width="1000" height="1000" fill="#000000"></rect><g transform="matrix(0.7,0,0,0.7,149.57575757575756,405.21162774397743)"><svg viewBox="0 0 396 107" data-background-color="#ffffff" preserveAspectRatio="xMidYMid meet" height="270" width="1000" xmlns="http://www.w3.org/2000/svg" xmlns:xlink="http://www.w3.org/1999/xlink"><g id="tight-bounds" transform="matrix(1,0,0,1,0.2400000000000091,0.16325836716620756)"><svg viewBox="0 0 395.52 106.67339716118379" height="106.67339716118379" width="395.52"><g><svg viewBox="0 0 566.7946146412135 152.86687660912793" height="106.67339716118379" width="395.52"><g transform="matrix(1,0,0,1,171.27461464121336,44.7481434764434)"><svg viewBox="0 0 395.52000000000004 63.37058965624113" height="63.37058965624113" width="395.52000000000004"><g><svg viewBox="0 0 395.52000000000004 63.37058965624113" height="63.37058965624113" width="395.52000000000004"><g><svg viewBox="0 0 395.52000000000004 38.98688988310002" height="38.98688988310002" width="395.52000000000004"><g transform="matrix(1,0,0,1,0,0)"><svg width="395.52000000000004" viewBox="2.45 -33.6 346.22 34.150000000000006" height="38.98688988310002" data-palette-color="#398378"><g class="undefined-text-0" data-fill-palette-color="primary" id="text-0"><path d="M2.45-32.5L2.45-33 9.6-33 9.6-32.5 9.35-32.5Q9-32.5 8.7-32.23 8.4-31.95 8.2-31.58 8-31.2 7.88-30.73 7.75-30.25 7.75-29.9L7.75-29.9 7.75-3.25Q7.75-2.85 7.85-2.38 7.95-1.9 8.18-1.5 8.4-1.1 8.68-0.8 8.95-0.5 9.35-0.5L9.35-0.5 9.6-0.5 9.6 0 2.45 0 2.45-0.5 2.7-0.5Q3.1-0.5 3.4-0.78 3.7-1.05 3.93-1.48 4.15-1.9 4.25-2.38 4.35-2.85 4.35-3.25L4.35-3.25 4.35-29.9Q4.35-30.25 4.25-30.7 4.15-31.15 3.93-31.55 3.7-31.95 3.4-32.23 3.1-32.5 2.7-32.5L2.7-32.5 2.45-32.5ZM34.65-8.85L34.65-8.85Q34.65-6.35 33.65-4.58 32.65-2.8 31.07-1.7 29.5-0.6 27.52-0.1 25.55 0.4 23.6 0.4L23.6 0.4Q21.6 0.4 20.15 0 18.7-0.4 17.5-0.75L17.5-0.75Q16.7-1 16.05-1.18 15.4-1.35 14.75-1.35L14.75-1.35 14.75-7.05 15.25-7.05Q15.25-5.15 16.22-4.03 17.2-2.9 18.5-2.3 19.8-1.7 21.1-1.53 22.4-1.35 23-1.35L23-1.35Q25.15-1.35 26.7-1.98 28.25-2.6 29.25-3.63 30.25-4.65 30.72-5.9 31.2-7.15 31.2-8.45L31.2-8.45Q31.2-10.1 30.5-11.23 29.8-12.35 28.67-13.2 27.55-14.05 26.1-14.65 24.65-15.25 23.15-15.85L23.15-15.85Q21.45-16.5 19.8-17.2 18.15-17.9 16.85-18.93 15.55-19.95 14.75-21.38 13.95-22.8 13.95-24.9L13.95-24.9Q13.95-27.1 14.8-28.73 15.65-30.35 17.07-31.4 18.5-32.45 20.32-32.98 22.15-33.5 24.05-33.5L24.05-33.5Q25.35-33.5 26.5-33.33 27.65-33.15 28.7-32.9L28.7-32.9Q29.55-32.7 30.35-32.58 31.15-32.45 31.9-32.45L31.9-32.45 31.9-27.3 31.4-27.3Q31.3-29.9 29.35-30.83 27.4-31.75 23.95-31.75L23.95-31.75Q21.95-31.75 20.67-31.08 19.4-30.4 18.65-29.43 17.9-28.45 17.62-27.33 17.35-26.2 17.35-25.35L17.35-25.35Q17.35-23.95 17.97-22.95 18.6-21.95 19.65-21.2 20.7-20.45 22.07-19.85 23.45-19.25 24.95-18.7L24.95-18.7Q26.65-18.05 28.4-17.3 30.15-16.55 31.52-15.45 32.9-14.35 33.77-12.75 34.65-11.15 34.65-8.85ZM58.85 0L58.85-0.5 59.1-0.5Q59.45-0.5 59.75-0.78 60.05-1.05 60.27-1.48 60.5-1.9 60.6-2.38 60.7-2.85 60.7-3.25L60.7-3.25 60.7-16.85 44.7-16.85 44.7-3.25Q44.7-2.85 44.8-2.38 44.9-1.9 45.1-1.5 45.3-1.1 45.57-0.8 45.85-0.5 46.25-0.5L46.25-0.5 46.5-0.5 46.5 0 39.5 0 39.5-0.5 39.75-0.5Q40.1-0.5 40.4-0.78 40.7-1.05 40.92-1.48 41.15-1.9 41.25-2.38 41.35-2.85 41.35-3.25L41.35-3.25 41.35-29.9Q41.35-30.25 41.25-30.7 41.15-31.15 40.95-31.55 40.75-31.95 40.45-32.23 40.15-32.5 39.75-32.5L39.75-32.5 39.5-32.5 39.5-33 46.5-33 46.5-32.5 46.25-32.5Q45.85-32.5 45.55-32.23 45.25-31.95 45.07-31.55 44.9-31.15 44.8-30.7 44.7-30.25 44.7-29.9L44.7-29.9 44.7-18.6 60.7-18.6 60.7-29.9Q60.7-30.25 60.6-30.7 60.5-31.15 60.3-31.55 60.1-31.95 59.8-32.23 59.5-32.5 59.1-32.5L59.1-32.5 58.85-32.5 58.85-33 65.84-33 65.84-32.5 65.59-32.5Q65.2-32.5 64.9-32.23 64.59-31.95 64.42-31.55 64.25-31.15 64.15-30.7 64.05-30.25 64.05-29.9L64.05-29.9 64.05-3.25Q64.05-2.85 64.17-2.38 64.3-1.9 64.5-1.5 64.7-1.1 64.97-0.8 65.25-0.5 65.59-0.5L65.59-0.5 65.84-0.5 65.84 0 58.85 0ZM89.09 0L89.09-0.5 89.34-0.5Q90.54-0.5 90.54-1.6L90.54-1.6Q90.54-2 90.39-2.45L90.39-2.45 85.89-14.6 77.14-14.6 72.79-2.65Q72.64-2.25 72.64-1.9L72.64-1.9Q72.64-1.25 72.99-0.88 73.34-0.5 73.74-0.5L73.74-0.5 73.99-0.5 73.99 0 68.44 0 68.44-0.5 68.69-0.5Q69.34-0.5 69.97-1.28 70.59-2.05 70.99-3.1L70.99-3.1 82.44-33.6 93.64-3.4Q93.99-2.4 94.62-1.45 95.24-0.5 96.24-0.5L96.24-0.5 96.49-0.5 96.49 0 89.09 0ZM81.49-26.75L77.64-16.3 85.34-16.3 81.49-26.75ZM104.74-0.5L104.74-0.5 104.99-0.5 104.99 0 99.44 0 99.44-0.5 99.69-0.5Q100.04-0.5 100.37-0.8 100.69-1.1 100.89-1.5 101.09-1.9 101.22-2.38 101.34-2.85 101.34-3.25L101.34-3.25 101.34-29.9Q101.34-30.25 101.27-30.7 101.19-31.15 100.99-31.55 100.79-31.95 100.44-32.23 100.09-32.5 99.59-32.5L99.59-32.5 99.34-32.5 99.34-33 104.39-33 122.54-4.4 122.54-29.9Q122.54-30.25 122.42-30.7 122.29-31.15 122.07-31.55 121.84-31.95 121.54-32.23 121.24-32.5 120.84-32.5L120.84-32.5 120.59-32.5 120.59-33 126.19-33 126.19-32.5 125.94-32.5Q125.54-32.5 125.24-32.23 124.94-31.95 124.72-31.55 124.49-31.15 124.39-30.7 124.29-30.25 124.29-29.9L124.29-29.9 124.29 0 121.19 0 103.09-28.7 103.09-3.25Q103.09-2.85 103.19-2.38 103.29-1.9 103.52-1.5 103.74-1.1 104.04-0.8 104.34-0.5 104.74-0.5Z" fill="#ffffff" data-fill-palette-color="primary"></path><path d="M155.34 0L155.34-0.5 155.59-0.5Q155.94-0.5 156.24-0.8 156.54-1.1 156.77-1.5 156.99-1.9 157.09-2.38 157.19-2.85 157.19-3.25L157.19-3.25 157.19-29.55 144.29 0.55 132.04-28 132.04-3.25Q132.04-2.85 132.14-2.38 132.24-1.9 132.47-1.5 132.69-1.1 132.99-0.8 133.29-0.5 133.69-0.5L133.69-0.5 133.94-0.5 133.94 0 128.49 0 128.49-0.5 128.74-0.5Q129.09-0.5 129.39-0.8 129.69-1.1 129.89-1.5 130.09-1.9 130.19-2.38 130.29-2.85 130.29-3.25L130.29-3.25 130.29-29.9Q130.29-30.25 130.19-30.7 130.09-31.15 129.89-31.55 129.69-31.95 129.39-32.23 129.09-32.5 128.74-32.5L128.74-32.5 128.49-32.5 128.49-33 133.59-33 145.19-5.65 156.79-33 162.44-33 162.44-32.5 162.19-32.5Q161.79-32.5 161.49-32.23 161.19-31.95 160.96-31.55 160.74-31.15 160.64-30.7 160.54-30.25 160.54-29.9L160.54-29.9 160.54-3.25Q160.54-2.85 160.64-2.38 160.74-1.9 160.96-1.5 161.19-1.1 161.49-0.8 161.79-0.5 162.19-0.5L162.19-0.5 162.44-0.5 162.44 0 155.34 0ZM167.29 0L167.29-0.5 167.54-0.5Q167.94-0.5 168.24-0.78 168.54-1.05 168.76-1.45 168.99-1.85 169.11-2.3 169.24-2.75 169.24-3.15L169.24-3.15 169.24-29.9Q169.24-30.25 169.11-30.7 168.99-31.15 168.76-31.55 168.54-31.95 168.24-32.23 167.94-32.5 167.54-32.5L167.54-32.5 167.29-32.5 167.29-33 186.54-33 186.54-28.35 186.04-28.35Q185.94-29.5 185.14-30.38 184.34-31.25 182.64-31.25L182.64-31.25 172.59-31.25 172.59-18.6 180.89-18.6Q182.04-18.6 182.81-19.3 183.59-20 183.59-20.95L183.59-20.95 184.09-20.95 184.09-14.7 183.59-14.7Q183.59-15.6 182.84-16.25 182.09-16.9 180.89-16.9L180.89-16.9 172.59-16.9 172.59-1.75 183.54-1.75Q184.49-1.75 185.19-2.2 185.89-2.65 186.36-3.28 186.84-3.9 187.06-4.63 187.29-5.35 187.29-5.85L187.29-5.85 187.79-5.85 187.79 0 167.29 0ZM191.49 0L191.49-0.5 191.74-0.5Q192.09-0.5 192.39-0.8 192.69-1.1 192.91-1.5 193.14-1.9 193.24-2.38 193.34-2.85 193.34-3.25L193.34-3.25 193.34-29.9Q193.34-30.25 193.24-30.7 193.14-31.15 192.94-31.55 192.74-31.95 192.44-32.23 192.14-32.5 191.74-32.5L191.74-32.5 191.49-32.5 191.49-33 201.14-33Q205.09-33 208.24-31.63 211.39-30.25 213.56-27.93 215.74-25.6 216.89-22.6 218.03-19.6 218.03-16.35L218.03-16.35Q218.03-13.3 216.94-10.38 215.84-7.45 213.64-5.15 211.44-2.85 208.14-1.43 204.84 0 200.49 0L200.49 0 191.49 0ZM214.64-15.6L214.64-15.6Q214.64-18.8 213.49-21.65 212.34-24.5 210.26-26.63 208.19-28.75 205.36-30 202.53-31.25 199.24-31.25L199.24-31.25 196.69-31.25 196.69-1.75 199.34-1.75Q202.03-1.75 204.76-2.58 207.49-3.4 209.69-5.13 211.89-6.85 213.26-9.45 214.64-12.05 214.64-15.6ZM222.53-32.5L222.53-33 229.68-33 229.68-32.5 229.43-32.5Q229.08-32.5 228.78-32.23 228.48-31.95 228.28-31.58 228.08-31.2 227.96-30.73 227.83-30.25 227.83-29.9L227.83-29.9 227.83-3.25Q227.83-2.85 227.93-2.38 228.03-1.9 228.26-1.5 228.48-1.1 228.76-0.8 229.03-0.5 229.43-0.5L229.43-0.5 229.68-0.5 229.68 0 222.53 0 222.53-0.5 222.78-0.5Q223.18-0.5 223.48-0.78 223.78-1.05 224.01-1.48 224.23-1.9 224.33-2.38 224.43-2.85 224.43-3.25L224.43-3.25 224.43-29.9Q224.43-30.25 224.33-30.7 224.23-31.15 224.01-31.55 223.78-31.95 223.48-32.23 223.18-32.5 222.78-32.5L222.78-32.5 222.53-32.5ZM252.08-31.7L252.08-31.7Q248.38-31.7 245.66-30.38 242.93-29.05 241.13-26.93 239.33-24.8 238.46-22.15 237.58-19.5 237.58-16.9L237.58-16.9Q237.58-13.95 238.73-11.13 239.88-8.3 241.91-6.13 243.93-3.95 246.63-2.63 249.33-1.3 252.48-1.3L252.48-1.3Q253.38-1.3 254.61-1.5 255.83-1.7 257.03-2.27 258.23-2.85 259.26-3.9 260.28-4.95 260.83-6.65L260.83-6.65 261.33-6.65 261.33-1.1Q260.58-1.1 259.76-0.9 258.93-0.7 257.93-0.45L257.93-0.45Q256.63-0.1 255.06 0.2 253.48 0.5 251.73 0.5L251.73 0.5Q247.38 0.5 244.08-1 240.78-2.5 238.58-4.9 236.38-7.3 235.28-10.33 234.18-13.35 234.18-16.45L234.18-16.45Q234.18-19.55 235.28-22.6 236.38-25.65 238.63-28.08 240.88-30.5 244.28-32 247.68-33.5 252.28-33.5L252.28-33.5Q253.93-33.5 255.26-33.2 256.58-32.9 257.63-32.6L257.63-32.6Q258.38-32.35 259.01-32.23 259.63-32.1 260.23-32.1L260.23-32.1 260.23-26.55 259.73-26.55Q259.43-28.1 258.63-29.13 257.83-30.15 256.76-30.7 255.68-31.25 254.46-31.48 253.23-31.7 252.08-31.7ZM282.48-33.5L282.48-33.5Q286.38-33.5 289.48-32.13 292.58-30.75 294.75-28.43 296.93-26.1 298.1-23.03 299.28-19.95 299.28-16.6L299.28-16.6Q299.28-12.85 297.9-9.7 296.53-6.55 294.13-4.3 291.73-2.05 288.55-0.78 285.38 0.5 281.78 0.5L281.78 0.5Q277.93 0.5 274.85-0.9 271.78-2.3 269.65-4.6 267.53-6.9 266.38-9.9 265.23-12.9 265.23-16.15L265.23-16.15Q265.23-19.35 266.38-22.48 267.53-25.6 269.75-28.05 271.98-30.5 275.18-32 278.38-33.5 282.48-33.5ZM282.43-1.25L282.43-1.25Q285.78-1.4 288.3-2.78 290.83-4.15 292.53-6.28 294.23-8.4 295.05-10.95 295.88-13.5 295.88-16L295.88-16Q295.88-18.75 294.88-21.55 293.88-24.35 292.03-26.63 290.18-28.9 287.6-30.33 285.03-31.75 281.83-31.75L281.83-31.75Q278.73-31.75 276.28-30.38 273.83-29 272.1-26.85 270.38-24.7 269.48-22.05 268.58-19.4 268.58-16.85L268.58-16.85Q268.58-14.1 269.63-11.33 270.68-8.55 272.53-6.3 274.38-4.05 276.9-2.65 279.43-1.25 282.43-1.25ZM323.93-8.85L323.93-8.85Q323.93-6.35 322.93-4.58 321.93-2.8 320.35-1.7 318.78-0.6 316.8-0.1 314.83 0.4 312.88 0.4L312.88 0.4Q310.88 0.4 309.43 0 307.98-0.4 306.78-0.75L306.78-0.75Q305.98-1 305.33-1.18 304.68-1.35 304.03-1.35L304.03-1.35 304.03-7.05 304.53-7.05Q304.53-5.15 305.5-4.03 306.48-2.9 307.78-2.3 309.08-1.7 310.38-1.53 311.68-1.35 312.28-1.35L312.28-1.35Q314.43-1.35 315.98-1.98 317.53-2.6 318.53-3.63 319.53-4.65 320-5.9 320.48-7.15 320.48-8.45L320.48-8.45Q320.48-10.1 319.78-11.23 319.08-12.35 317.95-13.2 316.83-14.05 315.38-14.65 313.93-15.25 312.43-15.85L312.43-15.85Q310.73-16.5 309.08-17.2 307.43-17.9 306.13-18.93 304.83-19.95 304.03-21.38 303.23-22.8 303.23-24.9L303.23-24.9Q303.23-27.1 304.08-28.73 304.93-30.35 306.35-31.4 307.78-32.45 309.6-32.98 311.43-33.5 313.33-33.5L313.33-33.5Q314.63-33.5 315.78-33.33 316.93-33.15 317.98-32.9L317.98-32.9Q318.83-32.7 319.63-32.58 320.43-32.45 321.18-32.45L321.18-32.45 321.18-27.3 320.68-27.3Q320.58-29.9 318.63-30.83 316.68-31.75 313.23-31.75L313.23-31.75Q311.23-31.75 309.95-31.08 308.68-30.4 307.93-29.43 307.18-28.45 306.9-27.33 306.63-26.2 306.63-25.35L306.63-25.35Q306.63-23.95 307.25-22.95 307.88-21.95 308.93-21.2 309.98-20.45 311.35-19.85 312.73-19.25 314.23-18.7L314.23-18.7Q315.93-18.05 317.68-17.3 319.43-16.55 320.8-15.45 322.18-14.35 323.05-12.75 323.93-11.15 323.93-8.85ZM328.17 0L328.17-0.5 328.42-0.5Q328.82-0.5 329.12-0.78 329.42-1.05 329.65-1.45 329.87-1.85 330-2.3 330.12-2.75 330.12-3.15L330.12-3.15 330.12-29.9Q330.12-30.25 330-30.7 329.87-31.15 329.65-31.55 329.42-31.95 329.12-32.23 328.82-32.5 328.42-32.5L328.42-32.5 328.17-32.5 328.17-33 347.42-33 347.42-28.35 346.92-28.35Q346.82-29.5 346.02-30.38 345.22-31.25 343.52-31.25L343.52-31.25 333.47-31.25 333.47-18.6 341.77-18.6Q342.92-18.6 343.7-19.3 344.47-20 344.47-20.95L344.47-20.95 344.97-20.95 344.97-14.7 344.47-14.7Q344.47-15.6 343.72-16.25 342.97-16.9 341.77-16.9L341.77-16.9 333.47-16.9 333.47-1.75 344.42-1.75Q345.37-1.75 346.07-2.2 346.77-2.65 347.25-3.28 347.72-3.9 347.95-4.63 348.17-5.35 348.17-5.85L348.17-5.85 348.67-5.85 348.67 0 328.17 0Z" fill="#ffffff" data-fill-palette-color="secondary"></path></g></svg></g></svg></g><g transform="matrix(1,0,0,1,0,48.190758899142736)"><svg viewBox="0 0 232.20979200000002 15.179830757098388" height="15.179830757098388" width="232.20979200000002"><g transform="matrix(1,0,0,1,0,0)"><svg width="232.20979200000002" viewBox="-1.3 -34.05 547.0699999999999 34.65" height="15.179830757098388" data-palette-color="#2dc8a6"><g class="undefined-text-1" data-fill-palette-color="secondary" id="text-1"><path d="M36.6-33.5Q38.7-33.5 40.1-32.15 41.5-30.8 41.5-28.5L41.5-28.5Q41.5-25.9 39.95-24.3 38.4-22.7 36.25-22.7L36.25-22.7Q34.85-22.7 33.85-23.2 32.85-23.7 31.95-24.8L31.95-24.8 27.65-21.2 32.5-6.85Q32.95-5.6 33.48-4.85 34-4.1 34.75-3.35L34.75-3.35Q35.3-2.8 35.52-2.48 35.75-2.15 35.75-1.7L35.75-1.7Q35.75-0.9 35.02-0.45 34.3 0 32.5 0L32.5 0 25.95 0Q23.5 0 22.33-1.07 21.15-2.15 20.4-4.65L20.4-4.65 17.9-13.05 16.45-11.85 14.8-5.9Q14.6-5.25 14.6-4.65L14.6-4.65Q14.6-4.05 14.78-3.65 14.95-3.25 15.3-2.8L15.3-2.8Q15.75-2.15 15.75-1.75L15.75-1.75Q15.75-1.65 15.65-1.25L15.65-1.25Q15.45-0.55 14.75-0.28 14.05 0 12.65 0L12.65 0 0.9 0Q-0.15 0-0.73-0.35-1.3-0.7-1.3-1.3L-1.3-1.3Q-1.3-1.6-1.15-1.95L-1.15-1.95Q-0.95-2.5-0.5-2.8-0.05-3.1 0.05-3.15L0.05-3.15Q0.85-3.65 1.35-4.17 1.85-4.7 2.2-5.9L2.2-5.9 8.3-27.45Q8.5-28.1 8.5-28.7L8.5-28.7Q8.5-29.25 8.33-29.63 8.15-30 7.85-30.5L7.85-30.5Q7.4-31.15 7.4-31.55L7.4-31.55Q7.4-31.7 7.5-32.1L7.5-32.1Q7.7-32.75 8.38-33.02 9.05-33.3 10.45-33.3L10.45-33.3 22.2-33.3Q23.25-33.3 23.83-32.98 24.4-32.65 24.4-32.05L24.4-32.05Q24.4-31.8 24.25-31.4L24.25-31.4Q24.1-31.05 23.83-30.78 23.55-30.5 23.33-30.38 23.1-30.25 23-30.15L23-30.15Q22.2-29.7 21.7-29.15 21.2-28.6 20.85-27.45L20.85-27.45 18.75-20 32-31.45Q33.3-32.55 34.35-33.02 35.4-33.5 36.6-33.5L36.6-33.5ZM72-33.3Q73.85-33.3 74.87-32.5 75.9-31.7 75.9-30.3L75.9-30.3Q75.9-29.6 75.7-28.95L75.7-28.95 74.4-24.3Q74.05-22.95 73.37-22.43 72.7-21.9 71.45-21.9L71.45-21.9Q70.25-21.9 69.57-22.43 68.9-22.95 68.55-24.15L68.55-24.15 67.75-27Q67.5-27.9 67.15-28.2 66.8-28.5 65.8-28.5L65.8-28.5 60.55-28.5 58.05-19.6 60.25-19.6Q60.6-19.6 61.2-20.1L61.2-20.1 62.9-21.6Q63.65-22.25 64.2-22.55 64.75-22.85 65.55-22.85L65.55-22.85Q66.45-22.85 67.02-22.38 67.6-21.9 67.6-21.15L67.6-21.15Q67.6-20.95 67.5-20.55L67.5-20.55 65.45-13.6Q65.15-12.5 64.42-11.98 63.7-11.45 62.85-11.45L62.85-11.45Q61.45-11.45 60.75-12.9L60.75-12.9 59.9-14.65Q59.55-15.4 58.8-15.4L58.8-15.4 56.85-15.4 53.9-4.8 58.3-4.8Q59.25-4.8 59.97-5.18 60.7-5.55 61.55-6.5L61.55-6.5 64.55-9.8Q65.35-10.65 66.07-11.03 66.8-11.4 67.85-11.4L67.85-11.4Q68.95-11.4 69.65-10.9 70.35-10.4 70.35-9.4L70.35-9.4Q70.35-9 70.2-8.45L70.2-8.45 68.75-3.4Q68.2-1.5 67.15-0.75 66.1 0 64.1 0L64.1 0 40.25 0Q39.2 0 38.62-0.35 38.05-0.7 38.05-1.3L38.05-1.3Q38.05-1.6 38.2-1.95L38.2-1.95Q38.4-2.5 38.85-2.8 39.3-3.1 39.4-3.15L39.4-3.15Q40.2-3.65 40.7-4.17 41.2-4.7 41.55-5.9L41.55-5.9 47.7-27.45Q47.9-28.1 47.9-28.65L47.9-28.65Q47.9-29.25 47.72-29.65 47.55-30.05 47.2-30.5L47.2-30.5Q46.75-31.15 46.75-31.55L46.75-31.55Q46.75-31.7 46.85-32.1L46.85-32.1Q47.05-32.75 47.75-33.02 48.45-33.3 49.8-33.3L49.8-33.3 72-33.3ZM105.55-33.3Q107.4-33.3 108.42-32.5 109.45-31.7 109.45-30.3L109.45-30.3Q109.45-29.6 109.25-28.95L109.25-28.95 107.95-24.3Q107.6-22.95 106.92-22.43 106.25-21.9 105-21.9L105-21.9Q103.8-21.9 103.12-22.43 102.45-22.95 102.1-24.15L102.1-24.15 101.3-27Q101.05-27.9 100.7-28.2 100.35-28.5 99.35-28.5L99.35-28.5 94.1-28.5 91.6-19.6 93.8-19.6Q94.15-19.6 94.75-20.1L94.75-20.1 96.45-21.6Q97.2-22.25 97.75-22.55 98.3-22.85 99.1-22.85L99.1-22.85Q100-22.85 100.57-22.38 101.15-21.9 101.15-21.15L101.15-21.15Q101.15-20.95 101.05-20.55L101.05-20.55 99-13.6Q98.7-12.5 97.97-11.98 97.25-11.45 96.4-11.45L96.4-11.45Q95-11.45 94.3-12.9L94.3-12.9 93.45-14.65Q93.1-15.4 92.35-15.4L92.35-15.4 90.4-15.4 87.45-4.8 91.85-4.8Q92.8-4.8 93.52-5.18 94.25-5.55 95.1-6.5L95.1-6.5 98.1-9.8Q98.9-10.65 99.62-11.03 100.35-11.4 101.4-11.4L101.4-11.4Q102.5-11.4 103.2-10.9 103.9-10.4 103.9-9.4L103.9-9.4Q103.9-9 103.75-8.45L103.75-8.45 102.3-3.4Q101.75-1.5 100.7-0.75 99.65 0 97.65 0L97.65 0 73.8 0Q72.75 0 72.17-0.35 71.6-0.7 71.6-1.3L71.6-1.3Q71.6-1.6 71.75-1.95L71.75-1.95Q71.95-2.5 72.4-2.8 72.85-3.1 72.95-3.15L72.95-3.15Q73.75-3.65 74.25-4.17 74.75-4.7 75.1-5.9L75.1-5.9 81.25-27.45Q81.45-28.1 81.45-28.65L81.45-28.65Q81.45-29.25 81.27-29.65 81.1-30.05 80.75-30.5L80.75-30.5Q80.3-31.15 80.3-31.55L80.3-31.55Q80.3-31.7 80.4-32.1L80.4-32.1Q80.6-32.75 81.3-33.02 82-33.3 83.35-33.3L83.35-33.3 105.55-33.3ZM133.39-33.3Q138.69-33.3 141.57-31 144.44-28.7 144.44-24.9L144.44-24.9Q144.44-23.4 143.99-21.75L143.99-21.75Q142.59-16.75 138.47-14.35 134.34-11.95 128.04-11.95L128.04-11.95 122.89-11.95 121.19-5.9Q121.09-5.6 121.09-5.1L121.09-5.1Q121.09-4.4 121.42-3.95 121.74-3.5 122.39-2.9L122.39-2.9Q122.94-2.4 123.14-2.15 123.34-1.9 123.34-1.55L123.34-1.55Q123.34-0.7 122.54-0.35 121.74 0 120.19 0L120.19 0 107.64 0Q106.34 0 105.69-0.48 105.04-0.95 105.24-1.8L105.24-1.8Q105.34-2.25 105.62-2.53 105.89-2.8 106.44-3.15L106.44-3.15Q107.29-3.65 107.79-4.2 108.29-4.75 108.59-5.9L108.59-5.9 114.69-27.45Q114.89-28.1 114.89-28.7L114.89-28.7Q114.89-29.25 114.72-29.63 114.54-30 114.24-30.5L114.24-30.5Q113.79-31.15 113.79-31.55L113.79-31.55Q113.79-31.7 113.89-32.1L113.89-32.1Q114.09-32.75 114.77-33.02 115.44-33.3 116.84-33.3L116.84-33.3 133.39-33.3ZM132.09-22.65Q132.64-24.5 132.64-25.9L132.64-25.9Q132.64-28.8 129.94-28.8L129.94-28.8 127.69-28.8 124.14-16.45 126.34-16.45Q128.44-16.45 129.77-17.78 131.09-19.1 132.09-22.65L132.09-22.65Z" fill="#ffffff" data-fill-palette-color="primary"></path><path d="M188.14-33.3Q189.19-33.3 189.77-32.95 190.34-32.6 190.34-32.05L190.34-32.05Q190.34-31.8 190.19-31.4L190.19-31.4Q190.04-31.05 189.77-30.78 189.49-30.5 189.27-30.38 189.04-30.25 188.94-30.15L188.94-30.15Q188.14-29.7 187.64-29.15 187.14-28.6 186.79-27.45L186.79-27.45 180.64-5.9Q180.44-5.25 180.44-4.65L180.44-4.65Q180.44-4.05 180.62-3.7 180.79-3.35 181.14-2.8L181.14-2.8Q181.19-2.75 181.42-2.43 181.64-2.1 181.64-1.75L181.64-1.75Q181.64-1.65 181.54-1.25L181.54-1.25Q181.29-0.55 180.59-0.28 179.89 0 178.49 0L178.49 0 166.74 0Q165.69 0 165.12-0.35 164.54-0.7 164.54-1.3L164.54-1.3Q164.54-1.6 164.69-1.95L164.69-1.95Q164.89-2.35 165.24-2.63 165.59-2.9 165.94-3.1L165.94-3.1Q166.74-3.55 167.24-4.13 167.74-4.7 168.09-5.9L168.09-5.9 170.49-14.25 161.64-14.25 159.24-5.9Q159.04-5.25 159.04-4.65L159.04-4.65Q159.04-4.05 159.22-3.7 159.39-3.35 159.74-2.8L159.74-2.8Q159.79-2.75 160.02-2.43 160.24-2.1 160.24-1.75L160.24-1.75Q160.24-1.65 160.14-1.25L160.14-1.25Q159.89-0.55 159.19-0.28 158.49 0 157.09 0L157.09 0 145.34 0Q144.29 0 143.71-0.35 143.14-0.7 143.14-1.3L143.14-1.3Q143.14-1.6 143.29-1.95L143.29-1.95Q143.49-2.35 143.84-2.63 144.19-2.9 144.54-3.1L144.54-3.1Q145.34-3.55 145.84-4.13 146.34-4.7 146.69-5.9L146.69-5.9 152.84-27.45Q153.04-28.1 153.04-28.7L153.04-28.7Q153.04-29.25 152.87-29.63 152.69-30 152.39-30.5L152.39-30.5Q152.19-30.75 152.04-31.03 151.89-31.3 151.89-31.6L151.89-31.6Q151.89-31.7 151.99-32.1L151.99-32.1Q152.19-32.75 152.89-33.02 153.59-33.3 154.99-33.3L154.99-33.3 166.74-33.3Q167.79-33.3 168.37-32.95 168.94-32.6 168.94-32.05L168.94-32.05Q168.94-31.8 168.79-31.4L168.79-31.4Q168.64-31.05 168.37-30.78 168.09-30.5 167.87-30.38 167.64-30.25 167.54-30.15L167.54-30.15Q166.74-29.7 166.24-29.15 165.74-28.6 165.39-27.45L165.39-27.45 163.04-19.25 171.89-19.25 174.24-27.45Q174.44-28.1 174.44-28.7L174.44-28.7Q174.44-29.25 174.27-29.63 174.09-30 173.79-30.5L173.79-30.5Q173.59-30.75 173.44-31.03 173.29-31.3 173.29-31.6L173.29-31.6Q173.29-31.7 173.39-32.1L173.39-32.1Q173.59-32.75 174.29-33.02 174.99-33.3 176.39-33.3L176.39-33.3 188.14-33.3ZM218.79-33.3Q220.64-33.3 221.66-32.5 222.69-31.7 222.69-30.3L222.69-30.3Q222.69-29.6 222.49-28.95L222.49-28.95 221.19-24.3Q220.84-22.95 220.16-22.43 219.49-21.9 218.24-21.9L218.24-21.9Q217.04-21.9 216.36-22.43 215.69-22.95 215.34-24.15L215.34-24.15 214.54-27Q214.29-27.9 213.94-28.2 213.59-28.5 212.59-28.5L212.59-28.5 207.34-28.5 204.84-19.6 207.04-19.6Q207.39-19.6 207.99-20.1L207.99-20.1 209.69-21.6Q210.44-22.25 210.99-22.55 211.54-22.85 212.34-22.85L212.34-22.85Q213.24-22.85 213.81-22.38 214.39-21.9 214.39-21.15L214.39-21.15Q214.39-20.95 214.29-20.55L214.29-20.55 212.24-13.6Q211.94-12.5 211.21-11.98 210.49-11.45 209.64-11.45L209.64-11.45Q208.24-11.45 207.54-12.9L207.54-12.9 206.69-14.65Q206.34-15.4 205.59-15.4L205.59-15.4 203.64-15.4 200.69-4.8 205.09-4.8Q206.04-4.8 206.76-5.18 207.49-5.55 208.34-6.5L208.34-6.5 211.34-9.8Q212.14-10.65 212.86-11.03 213.59-11.4 214.64-11.4L214.64-11.4Q215.74-11.4 216.44-10.9 217.14-10.4 217.14-9.4L217.14-9.4Q217.14-9 216.99-8.45L216.99-8.45 215.54-3.4Q214.99-1.5 213.94-0.75 212.89 0 210.89 0L210.89 0 187.04 0Q185.99 0 185.41-0.35 184.84-0.7 184.84-1.3L184.84-1.3Q184.84-1.6 184.99-1.95L184.99-1.95Q185.19-2.5 185.64-2.8 186.09-3.1 186.19-3.15L186.19-3.15Q186.99-3.65 187.49-4.17 187.99-4.7 188.34-5.9L188.34-5.9 194.49-27.45Q194.69-28.1 194.69-28.65L194.69-28.65Q194.69-29.25 194.51-29.65 194.34-30.05 193.99-30.5L193.99-30.5Q193.54-31.15 193.54-31.55L193.54-31.55Q193.54-31.7 193.64-32.1L193.64-32.1Q193.84-32.75 194.54-33.02 195.24-33.3 196.59-33.3L196.59-33.3 218.79-33.3ZM255.14-22.9L250.24-5.9Q250.03-5.25 250.03-4.6L250.03-4.6Q250.03-4.05 250.19-3.68 250.34-3.3 250.51-3.08 250.69-2.85 250.74-2.75L250.74-2.75Q251.24-2.25 251.24-1.75L251.24-1.75Q251.24-1.65 251.14-1.25L251.14-1.25Q250.94-0.55 250.26-0.28 249.59 0 248.19 0L248.19 0 236.34 0Q235.28 0 234.71-0.35 234.14-0.7 234.14-1.3L234.14-1.3Q234.14-1.6 234.28-1.95L234.28-1.95Q234.44-2.35 234.71-2.58 234.99-2.8 235.49-3.1L235.49-3.1Q236.28-3.55 236.78-4.1 237.28-4.65 237.64-5.9L237.64-5.9 238.94-10.2 231.14-10.2 229.78-7.35Q228.94-5.5 228.94-4.45L228.94-4.45Q228.94-3.85 229.14-3.48 229.34-3.1 229.74-2.7L229.74-2.7Q230.09-2.3 230.21-2.02 230.34-1.75 230.24-1.3L230.24-1.3Q230.03-0.55 229.41-0.28 228.78 0 227.44 0L227.44 0 219.99 0Q218.84 0 218.24-0.43 217.64-0.85 217.64-1.55L217.64-1.55Q217.64-2.35 218.21-2.83 218.78-3.3 219.94-3.85L219.94-3.85Q221.44-4.6 222.34-5.33 223.24-6.05 223.89-7.35L223.89-7.35 232.78-25.8Q234.84-30.1 237.61-32.02 240.39-33.95 244.94-33.95L244.94-33.95Q250.03-33.95 252.84-31.88 255.64-29.8 255.64-26.1L255.64-26.1Q255.64-24.55 255.14-22.9L255.14-22.9ZM233.44-15.2L240.44-15.2 243.09-24Q243.28-24.6 243.28-25.25L243.28-25.25Q243.28-26.2 242.76-26.68 242.24-27.15 241.28-27.15L241.28-27.15Q240.09-27.15 239.24-26.45 238.39-25.75 237.53-23.95L237.53-23.95 233.44-15.2ZM283.23-12.9Q284.63-12.9 285.36-12.33 286.08-11.75 286.08-10.7L286.08-10.7Q286.08-10.25 285.93-9.7L285.93-9.7 284.28-3.85Q283.63-1.7 282.46-0.85 281.28 0 278.98 0L278.98 0 255.48 0Q254.43 0 253.86-0.35 253.28-0.7 253.28-1.3L253.28-1.3Q253.28-1.6 253.43-1.95L253.43-1.95Q253.58-2.35 253.93-2.63 254.28-2.9 254.68-3.15L254.68-3.15Q255.48-3.65 255.98-4.17 256.48-4.7 256.83-5.9L256.83-5.9 262.93-27.45Q263.13-28.1 263.13-28.7L263.13-28.7Q263.13-29.25 262.96-29.63 262.78-30 262.48-30.5L262.48-30.5Q262.03-31.15 262.03-31.55L262.03-31.55Q262.03-31.7 262.13-32.1L262.13-32.1Q262.33-32.75 263.01-33.02 263.68-33.3 265.08-33.3L265.08-33.3 276.83-33.3Q277.88-33.3 278.46-32.98 279.03-32.65 279.03-32.05L279.03-32.05Q279.03-31.8 278.88-31.4L278.88-31.4Q278.73-31.05 278.46-30.78 278.18-30.5 277.96-30.38 277.73-30.25 277.63-30.15L277.63-30.15Q276.83-29.7 276.33-29.15 275.83-28.6 275.48-27.45L275.48-27.45 269.03-4.8 272.13-4.8Q273.28-4.8 274.11-5.2 274.93-5.6 275.83-6.7L275.83-6.7 279.28-10.8Q280.23-11.9 281.11-12.4 281.98-12.9 283.23-12.9L283.23-12.9ZM327.18-33.3Q329.93-33.3 329.93-31.05L329.93-31.05Q329.93-30.35 329.63-29.3L329.63-29.3 328.43-25.25Q327.88-23.4 327.08-22.65 326.28-21.9 324.78-21.9L324.78-21.9Q323.53-21.9 322.86-22.55 322.18-23.2 321.58-24.6L321.58-24.6 320.73-26.65Q320.33-27.6 319.88-27.95 319.43-28.3 318.48-28.3L318.48-28.3 317.33-28.3 310.98-5.95Q310.83-5.3 310.83-4.8L310.83-4.8Q310.83-4.2 311.01-3.8 311.18-3.4 311.53-2.95L311.53-2.95Q311.98-2.25 311.98-1.8L311.98-1.8Q311.98-1.7 311.88-1.3L311.88-1.3Q311.63-0.65 310.91-0.35 310.18-0.05 308.83-0.05L308.83-0.05 297.08-0.05Q296.03-0.05 295.46-0.4 294.88-0.75 294.88-1.4L294.88-1.4Q294.88-1.7 295.03-2L295.03-2Q295.23-2.45 295.51-2.68 295.78-2.9 296.33-3.25L296.33-3.25Q297.08-3.7 297.58-4.25 298.08-4.8 298.43-5.95L298.43-5.95 304.73-28.3 303.58-28.3Q302.48-28.3 301.78-27.95 301.08-27.6 300.28-26.65L300.28-26.65 298.63-24.6Q297.48-23.25 296.41-22.58 295.33-21.9 294.08-21.9L294.08-21.9Q292.93-21.9 292.28-22.5 291.63-23.1 291.63-24.15L291.63-24.15Q291.63-24.65 291.78-25.25L291.78-25.25 293.08-29.8Q293.48-31.2 293.98-31.93 294.48-32.65 295.41-32.98 296.33-33.3 298.03-33.3L298.03-33.3 327.18-33.3ZM368.78-33.3Q369.83-33.3 370.4-32.95 370.98-32.6 370.98-32.05L370.98-32.05Q370.98-31.8 370.83-31.4L370.83-31.4Q370.68-31.05 370.4-30.78 370.13-30.5 369.9-30.38 369.68-30.25 369.58-30.15L369.58-30.15Q368.78-29.7 368.28-29.15 367.78-28.6 367.43-27.45L367.43-27.45 361.28-5.9Q361.08-5.25 361.08-4.65L361.08-4.65Q361.08-4.05 361.25-3.7 361.43-3.35 361.78-2.8L361.78-2.8Q361.83-2.75 362.05-2.43 362.28-2.1 362.28-1.75L362.28-1.75Q362.28-1.65 362.18-1.25L362.18-1.25Q361.93-0.55 361.23-0.28 360.53 0 359.13 0L359.13 0 347.38 0Q346.33 0 345.75-0.35 345.18-0.7 345.18-1.3L345.18-1.3Q345.18-1.6 345.33-1.95L345.33-1.95Q345.53-2.35 345.88-2.63 346.23-2.9 346.58-3.1L346.58-3.1Q347.38-3.55 347.88-4.13 348.38-4.7 348.73-5.9L348.73-5.9 351.13-14.25 342.28-14.25 339.88-5.9Q339.68-5.25 339.68-4.65L339.68-4.65Q339.68-4.05 339.85-3.7 340.03-3.35 340.38-2.8L340.38-2.8Q340.43-2.75 340.65-2.43 340.88-2.1 340.88-1.75L340.88-1.75Q340.88-1.65 340.78-1.25L340.78-1.25Q340.53-0.55 339.83-0.28 339.13 0 337.73 0L337.73 0 325.98 0Q324.93 0 324.35-0.35 323.78-0.7 323.78-1.3L323.78-1.3Q323.78-1.6 323.93-1.95L323.93-1.95Q324.13-2.35 324.48-2.63 324.83-2.9 325.18-3.1L325.18-3.1Q325.98-3.55 326.48-4.13 326.98-4.7 327.33-5.9L327.33-5.9 333.48-27.45Q333.68-28.1 333.68-28.7L333.68-28.7Q333.68-29.25 333.5-29.63 333.33-30 333.03-30.5L333.03-30.5Q332.83-30.75 332.68-31.03 332.53-31.3 332.53-31.6L332.53-31.6Q332.53-31.7 332.63-32.1L332.63-32.1Q332.83-32.75 333.53-33.02 334.23-33.3 335.63-33.3L335.63-33.3 347.38-33.3Q348.43-33.3 349-32.95 349.58-32.6 349.58-32.05L349.58-32.05Q349.58-31.8 349.43-31.4L349.43-31.4Q349.28-31.05 349-30.78 348.73-30.5 348.5-30.38 348.28-30.25 348.18-30.15L348.18-30.15Q347.38-29.7 346.88-29.15 346.38-28.6 346.03-27.45L346.03-27.45 343.68-19.25 352.53-19.25 354.88-27.45Q355.08-28.1 355.08-28.7L355.08-28.7Q355.08-29.25 354.9-29.63 354.73-30 354.43-30.5L354.43-30.5Q354.23-30.75 354.08-31.03 353.93-31.3 353.93-31.6L353.93-31.6Q353.93-31.7 354.03-32.1L354.03-32.1Q354.23-32.75 354.93-33.02 355.63-33.3 357.03-33.3L357.03-33.3 368.78-33.3Z" fill="#ffffff" data-fill-palette-color="secondary"></path><path d="M388.38 0.3Q384.18 0.3 380.83-1.25 377.48-2.8 375.51-5.83 373.53-8.85 373.53-13.15L373.53-13.15Q373.53-16.15 374.58-19.65L374.58-19.65Q376.88-27.15 381.53-30.48 386.18-33.8 391.48-33.8L391.48-33.8Q394.33-33.8 396.53-32.95 398.73-32.1 400.58-30.5L400.58-30.5 401.93-31.55Q403.28-32.6 404.21-33 405.13-33.4 406.28-33.4L406.28-33.4Q407.53-33.4 408.28-32.85 409.03-32.3 409.03-31.25L409.03-31.25Q409.03-30.7 408.83-30.15L408.83-30.15 406.03-22.35Q405.58-21 404.96-20.45 404.33-19.9 403.08-19.9L403.08-19.9Q401.78-19.9 400.96-20.83 400.13-21.75 399.08-24L399.08-24Q397.88-26.35 397.13-27.1 396.38-27.85 394.93-27.85L394.93-27.85Q392.88-27.85 390.98-25.33 389.08-22.8 387.53-17.75L387.53-17.75Q386.23-13.5 386.23-10.65L386.23-10.65Q386.23-8.15 387.18-6.93 388.13-5.7 389.73-5.7L389.73-5.7Q392.08-5.7 393.61-6.75 395.13-7.8 396.73-9.6L396.73-9.6Q397.73-10.7 398.36-11.23 398.98-11.75 399.68-11.75L399.68-11.75Q400.58-11.75 401.58-10.85 402.58-9.95 402.53-9.05L402.53-9.05Q402.58-7.95 400.76-5.65 398.93-3.35 395.71-1.53 392.48 0.3 388.38 0.3L388.38 0.3ZM434.23-12.9Q435.63-12.9 436.35-12.33 437.08-11.75 437.08-10.7L437.08-10.7Q437.08-10.25 436.93-9.7L436.93-9.7 435.28-3.85Q434.63-1.7 433.45-0.85 432.28 0 429.98 0L429.98 0 406.48 0Q405.43 0 404.85-0.35 404.28-0.7 404.28-1.3L404.28-1.3Q404.28-1.6 404.43-1.95L404.43-1.95Q404.58-2.35 404.93-2.63 405.28-2.9 405.68-3.15L405.68-3.15Q406.48-3.65 406.98-4.17 407.48-4.7 407.83-5.9L407.83-5.9 413.93-27.45Q414.13-28.1 414.13-28.7L414.13-28.7Q414.13-29.25 413.95-29.63 413.78-30 413.48-30.5L413.48-30.5Q413.03-31.15 413.03-31.55L413.03-31.55Q413.03-31.7 413.13-32.1L413.13-32.1Q413.33-32.75 414-33.02 414.68-33.3 416.08-33.3L416.08-33.3 427.83-33.3Q428.88-33.3 429.45-32.98 430.03-32.65 430.03-32.05L430.03-32.05Q430.03-31.8 429.88-31.4L429.88-31.4Q429.73-31.05 429.45-30.78 429.18-30.5 428.95-30.38 428.73-30.25 428.63-30.15L428.63-30.15Q427.83-29.7 427.33-29.15 426.83-28.6 426.48-27.45L426.48-27.45 420.03-4.8 423.13-4.8Q424.28-4.8 425.1-5.2 425.93-5.6 426.83-6.7L426.83-6.7 430.28-10.8Q431.23-11.9 432.1-12.4 432.98-12.9 434.23-12.9L434.23-12.9ZM462.48-34.05Q468.78-34.05 472.33-31.08 475.88-28.1 475.88-22.5L475.88-22.5Q475.88-19.85 475.08-16.8L475.08-16.8Q473.58-11.2 470.43-7.3 467.28-3.4 462.93-1.4 458.58 0.6 453.48 0.6L453.48 0.6Q447.23 0.6 443.68-2.38 440.13-5.35 440.13-10.95L440.13-10.95Q440.13-13.5 440.98-16.8L440.98-16.8Q442.43-22.35 445.55-26.23 448.68-30.1 453-32.08 457.33-34.05 462.48-34.05L462.48-34.05ZM461.58-29.15Q460.08-29.15 458.88-27.95 457.68-26.75 456.5-24.03 455.33-21.3 453.98-16.45L453.98-16.45Q451.98-9.45 451.98-6.8L451.98-6.8Q451.98-5.25 452.53-4.55 453.08-3.85 454.28-3.85L454.28-3.85Q455.78-3.85 456.98-5.08 458.18-6.3 459.33-9 460.48-11.7 461.88-16.45L461.88-16.45Q463.83-23.35 463.83-26.15L463.83-26.15Q463.83-27.75 463.28-28.45 462.73-29.15 461.58-29.15L461.58-29.15ZM493.47-33.6Q496.27-33.6 498.65-32.93 501.02-32.25 503.47-30.8L503.47-30.8 504.62-31.75Q505.82-32.7 506.6-33.05 507.37-33.4 508.37-33.4L508.37-33.4Q509.57-33.4 510.27-32.88 510.97-32.35 510.97-31.35L510.97-31.35Q510.97-30.95 510.82-30.5L510.82-30.5 508.72-23.6Q508.37-22.4 507.85-21.9 507.32-21.4 506.27-21.4L506.27-21.4Q505.17-21.4 504.35-22.08 503.52-22.75 501.77-24.85L501.77-24.85Q500.02-26.85 498.6-27.68 497.17-28.5 495.67-28.5L495.67-28.5Q494.57-28.5 493.82-27.78 493.07-27.05 493.07-26L493.07-26Q493.07-24.8 494.27-23.78 495.47-22.75 498.02-21.2L498.02-21.2Q500.62-19.65 502.32-18.4 504.02-17.15 505.22-15.3 506.42-13.45 506.42-11.05L506.42-11.05Q506.42-9.5 505.92-7.95L505.92-7.95Q504.72-3.95 501.27-1.88 497.82 0.2 493.22 0.2L493.22 0.2Q489.77 0.2 487.42-0.6 485.07-1.4 482.62-3.3L482.62-3.3 480.82-1.8Q479.57-0.75 478.77-0.38 477.97 0 476.97 0L476.97 0Q475.82 0 475.15-0.55 474.47-1.1 474.47-2.05L474.47-2.05Q474.47-2.55 474.67-3.1L474.67-3.1 477.12-10.55Q477.52-11.85 478.22-12.4 478.92-12.95 480.02-12.95L480.02-12.95Q481.17-12.95 482.1-12.15 483.02-11.35 484.52-9.25L484.52-9.25Q486.12-6.95 487.5-6.05 488.87-5.15 490.77-5.15L490.77-5.15Q492.12-5.15 492.85-5.58 493.57-6 493.87-6.95L493.87-6.95Q493.97-7.2 493.97-7.7L493.97-7.7Q493.97-8.9 492.82-9.9 491.67-10.9 489.27-12.3L489.27-12.3Q486.72-13.85 485.12-15.08 483.52-16.3 482.35-18.15 481.17-20 481.17-22.5L481.17-22.5Q481.17-24.25 481.72-25.95L481.72-25.95Q482.77-29.4 486.02-31.5 489.27-33.6 493.47-33.6L493.47-33.6ZM541.87-33.3Q543.72-33.3 544.75-32.5 545.77-31.7 545.77-30.3L545.77-30.3Q545.77-29.6 545.57-28.95L545.57-28.95 544.27-24.3Q543.92-22.95 543.25-22.43 542.57-21.9 541.32-21.9L541.32-21.9Q540.12-21.9 539.45-22.43 538.77-22.95 538.42-24.15L538.42-24.15 537.62-27Q537.37-27.9 537.02-28.2 536.67-28.5 535.67-28.5L535.67-28.5 530.42-28.5 527.92-19.6 530.12-19.6Q530.47-19.6 531.07-20.1L531.07-20.1 532.77-21.6Q533.52-22.25 534.07-22.55 534.62-22.85 535.42-22.85L535.42-22.85Q536.32-22.85 536.9-22.38 537.47-21.9 537.47-21.15L537.47-21.15Q537.47-20.95 537.37-20.55L537.37-20.55 535.32-13.6Q535.02-12.5 534.29-11.98 533.57-11.45 532.72-11.45L532.72-11.45Q531.32-11.45 530.62-12.9L530.62-12.9 529.77-14.65Q529.42-15.4 528.67-15.4L528.67-15.4 526.72-15.4 523.77-4.8 528.17-4.8Q529.12-4.8 529.85-5.18 530.57-5.55 531.42-6.5L531.42-6.5 534.42-9.8Q535.22-10.65 535.95-11.03 536.67-11.4 537.72-11.4L537.72-11.4Q538.82-11.4 539.52-10.9 540.22-10.4 540.22-9.4L540.22-9.4Q540.22-9 540.07-8.45L540.07-8.45 538.62-3.4Q538.07-1.5 537.02-0.75 535.97 0 533.97 0L533.97 0 510.12 0Q509.07 0 508.5-0.35 507.92-0.7 507.92-1.3L507.92-1.3Q507.92-1.6 508.07-1.95L508.07-1.95Q508.27-2.5 508.72-2.8 509.17-3.1 509.27-3.15L509.27-3.15Q510.07-3.65 510.57-4.17 511.07-4.7 511.42-5.9L511.42-5.9 517.57-27.45Q517.77-28.1 517.77-28.65L517.77-28.65Q517.77-29.25 517.6-29.65 517.42-30.05 517.07-30.5L517.07-30.5Q516.62-31.15 516.62-31.55L516.62-31.55Q516.62-31.7 516.72-32.1L516.72-32.1Q516.92-32.75 517.62-33.02 518.32-33.3 519.67-33.3L519.67-33.3 541.87-33.3Z" fill="#ffffff" data-fill-palette-color="accent"></path></g></svg></g></svg></g></svg></g></svg></g><g><svg viewBox="0 0 152.86687660912793 152.86687660912793" height="152.86687660912793" width="152.86687660912793"><g><svg></svg></g><g id="icon-0"><svg viewBox="0 0 152.86687660912793 152.86687660912793" height="152.86687660912793" width="152.86687660912793"><g><path d="M0 76.433c0-42.213 34.22-76.433 76.433-76.433 42.213 0 76.433 34.22 76.434 76.433 0 42.213-34.22 76.433-76.434 76.434-42.213 0-76.433-34.22-76.433-76.434zM76.433 149.351c40.271 0 72.918-32.646 72.918-72.918 0-40.271-32.646-72.918-72.918-72.917-40.271 0-72.918 32.646-72.917 72.917 0 40.271 32.646 72.918 72.917 72.918z" data-fill-palette-color="accent" fill="#ffffff" stroke="transparent"></path></g><g transform="matrix(1,0,0,1,33.51596940030559,33.514890529795174)"><svg viewBox="0 0 85.83493780851674 85.83709554953758" height="85.83709554953758" width="85.83493780851674"><g><svg xmlns="http://www.w3.org/2000/svg" xmlns:xlink="http://www.w3.org/1999/xlink" version="1.1" x="0" y="0" viewBox="10.219999999999999 10.219 79.56 79.56200000000001" enable-background="new 0 0 100 100" xml:space="preserve" width="85.83493780851674" height="85.83709554953758" class="icon-ju-0" data-fill-palette-color="accent" id="ju-0"><g fill="#5cd528" data-fill-palette-color="accent"><g fill="#5cd528" data-fill-palette-color="accent"></g><g fill="#5cd528" data-fill-palette-color="accent"></g><g fill="#5cd528" data-fill-palette-color="accent"></g></g><path d="M79.841 10.219H20.159c-5.486 0-9.939 4.449-9.939 9.941v59.682c0 5.49 4.449 9.939 9.939 9.939h59.682c5.486 0 9.939-4.445 9.939-9.939V20.16C89.78 14.67 85.333 10.219 79.841 10.219zM78.402 59.455H59.463v18.949H40.532V59.455H21.598V40.533h18.935V21.596h18.931v18.938h18.939V59.455z" fill="#ffffff" data-fill-palette-color="accent"></path></svg><g></g></g></svg></g></svg></g></svg></g></svg></g><defs></defs></svg><rect width="395.52" height="106.67339716118379" fill="none" stroke="none" visibility="hidden"></rect></g></svg></g></svg>